<svg width="1000" height="1000" viewBox="0 0 1000 1000" fill="none" xmlns="http://www.w3.org/2000/svg">
<rect width="1000" height="1000" fill="#F4F0E5"/>
<path d="M238 782V753.5C246.5 748.5 256 744.25 266.5 740.75C277 736.75 288 733.75 299.5 731.75V307.25C288 304.75 276.75 301.75 265.75 298.25C255.25 294.25 246 290 238 285.5V257H325C333.5 257 344 256.75 356.5 256.25C369 255.75 382 255.25 395.5 254.75C409 253.75 422 253 434.5 252.5C447.5 251.5 458.5 251 467.5 251C511 251 549.75 256.75 583.75 268.25C618.25 279.75 647.25 296.5 670.75 318.5C694.75 340.5 713 367.75 725.5 400.25C738.5 432.75 745 470.25 745 512.75C745 554.25 739 592 727 626C715 660 697 689 673 713C649 737 618.5 755.75 581.5 769.25C545 782.25 502 788.75 452.5 788.75C446 788.75 437.25 788.25 426.25 787.25C415.25 786.75 403.5 786 391 785C378.5 784.5 366 783.75 353.5 782.75C341 782.25 330 782 320.5 782H238ZM457.75 299.75C448.75 299.75 439.75 300 430.75 300.5C421.75 301 414 301.75 407.5 302.75V737C409.5 737.5 413 738 418 738.5C423 738.5 428 738.75 433 739.25C438.5 739.25 443.75 739.5 448.75 740C453.75 740 457.5 740 460 740C489 740 513.5 734 533.5 722C554 710 570.75 693.75 583.75 673.25C596.75 652.75 606.25 628.75 612.25 601.25C618.25 573.75 621.25 544.5 621.25 513.5C621.25 486 618 459.5 611.5 434C605.5 408.5 596 385.75 583 365.75C570 345.75 553 329.75 532 317.75C511.5 305.75 486.75 299.75 457.75 299.75Z" fill="#421F1C"/>
</svg>
