<svg width="1000" height="500" viewBox="0 0 1000 500" fill="none" xmlns="http://www.w3.org/2000/svg">
<rect width="1000" height="500" fill="#F4F0E5"/>
<path d="M151 325V317.4C153.267 316.067 155.8 314.933 158.6 314C161.4 312.933 164.333 312.133 167.4 311.6V198.4C164.333 197.733 161.333 196.933 158.4 196C155.6 194.933 153.133 193.8 151 192.6V185H174.2C176.467 185 179.267 184.933 182.6 184.8C185.933 184.667 189.4 184.533 193 184.4C196.6 184.133 200.067 183.933 203.4 183.8C206.867 183.533 209.8 183.4 212.2 183.4C223.8 183.4 234.133 184.933 243.2 188C252.4 191.067 260.133 195.533 266.4 201.4C272.8 207.267 277.667 214.533 281 223.2C284.467 231.867 286.2 241.867 286.2 253.2C286.2 264.267 284.6 274.333 281.4 283.4C278.2 292.467 273.4 300.2 267 306.6C260.6 313 252.467 318 242.6 321.6C232.867 325.067 221.4 326.8 208.2 326.8C206.467 326.8 204.133 326.667 201.2 326.4C198.267 326.267 195.133 326.067 191.8 325.8C188.467 325.667 185.133 325.467 181.8 325.2C178.467 325.067 175.533 325 173 325H151ZM209.6 196.4C207.2 196.4 204.8 196.467 202.4 196.6C200 196.733 197.933 196.933 196.2 197.2V313C196.733 313.133 197.667 313.267 199 313.4C200.333 313.4 201.667 313.467 203 313.6C204.467 313.6 205.867 313.667 207.2 313.8C208.533 313.8 209.533 313.8 210.2 313.8C217.933 313.8 224.467 312.2 229.8 309C235.267 305.8 239.733 301.467 243.2 296C246.667 290.533 249.2 284.133 250.8 276.8C252.4 269.467 253.2 261.667 253.2 253.4C253.2 246.067 252.333 239 250.6 232.2C249 225.4 246.467 219.333 243 214C239.533 208.667 235 204.4 229.4 201.2C223.933 198 217.333 196.4 209.6 196.4ZM388.266 296C388.266 298.933 388.266 301.467 388.266 303.6C388.399 305.733 388.599 308 388.866 310.4L402.666 312.4V319.4C401.066 320.2 398.866 321 396.066 321.8C393.399 322.6 390.532 323.4 387.466 324.2C384.532 324.867 381.599 325.4 378.666 325.8C375.732 326.333 373.132 326.733 370.866 327H364.066C362.732 323.933 361.932 320.867 361.666 317.8C361.399 314.733 361.199 311 361.066 306.6H360.066C359.399 309.267 358.266 311.867 356.666 314.4C355.066 316.8 352.999 319 350.466 321C348.066 322.867 345.199 324.4 341.866 325.6C338.532 326.8 334.799 327.4 330.666 327.4C326.266 327.4 322.199 326.733 318.466 325.4C314.732 324.067 311.466 322.2 308.666 319.8C305.866 317.4 303.666 314.533 302.066 311.2C300.466 307.733 299.666 303.867 299.666 299.6C299.666 293.6 300.799 288.667 303.066 284.8C305.332 280.933 308.866 277.8 313.666 275.4C318.599 272.867 324.866 271 332.466 269.8C340.199 268.6 349.532 267.733 360.466 267.2C361.532 255.733 361.066 247.333 359.066 242C357.066 236.667 352.732 234 346.066 234C341.932 234 338.132 234.667 334.666 236L325.266 260H316.466C315.399 258.4 314.332 256.6 313.266 254.6C312.332 252.467 311.399 250.267 310.466 248C309.666 245.6 308.932 243.2 308.266 240.8C307.732 238.4 307.332 236.067 307.066 233.8C312.132 230.333 318.666 227.6 326.666 225.6C334.666 223.6 343.132 222.6 352.066 222.6C359.666 222.6 365.866 223.467 370.666 225.2C375.466 226.8 379.199 229.067 381.866 232C384.666 234.8 386.599 238.133 387.666 242C388.732 245.867 389.266 250 389.266 254.4C389.266 262.4 389.066 269.667 388.666 276.2C388.399 282.6 388.266 289.2 388.266 296ZM343.266 311.4C346.066 311.4 348.466 310.867 350.466 309.8C352.466 308.733 354.132 307.467 355.466 306C356.932 304.533 357.999 302.933 358.666 301.2C359.466 299.467 360.066 297.933 360.466 296.6V276.6C354.199 276.733 349.066 277.133 345.066 277.8C341.066 278.467 337.932 279.6 335.666 281.2C333.399 282.667 331.799 284.6 330.866 287C330.066 289.267 329.666 292.067 329.666 295.4C329.666 300.467 330.866 304.4 333.266 307.2C335.666 310 338.999 311.4 343.266 311.4ZM463.194 303.2C463.194 299.733 461.927 296.733 459.394 294.2C456.994 291.667 453.927 289.333 450.194 287.2C446.594 285.067 442.594 282.933 438.194 280.8C433.927 278.667 429.927 276.2 426.194 273.4C422.594 270.467 419.527 267.067 416.994 263.2C414.594 259.333 413.394 254.6 413.394 249C413.394 245 414.327 241.4 416.194 238.2C418.06 234.867 420.594 232.067 423.794 229.8C426.994 227.533 430.794 225.8 435.194 224.6C439.727 223.267 444.594 222.6 449.794 222.6C456.994 222.6 463.66 223.2 469.794 224.4C476.06 225.467 481.527 227 486.194 229C485.66 233.267 484.594 237.867 482.994 242.8C481.394 247.6 479.86 252 478.394 256H471.594L463.194 235.6C461.594 234.933 459.927 234.533 458.194 234.4C456.46 234.133 454.527 234 452.394 234C448.394 234 445.327 235.2 443.194 237.6C441.194 239.867 440.194 242.467 440.194 245.4C440.194 248.733 441.394 251.667 443.794 254.2C446.327 256.6 449.394 258.867 452.994 261C456.727 263.133 460.727 265.267 464.994 267.4C469.394 269.533 473.394 272 476.994 274.8C480.727 277.467 483.794 280.667 486.194 284.4C488.727 288.133 489.994 292.6 489.994 297.8C489.994 307 486.26 314.267 478.794 319.6C471.327 324.8 461.327 327.4 448.794 327.4C442.394 327.4 435.794 326.733 428.994 325.4C422.194 324.067 416.327 322.2 411.394 319.8C411.66 315 412.794 310.133 414.794 305.2C416.794 300.267 418.927 295.867 421.194 292H427.994L437.794 313.8C439.26 314.867 440.86 315.533 442.594 315.8C444.46 315.933 446.194 316 447.794 316C451.66 316 455.194 314.867 458.394 312.6C461.594 310.333 463.194 307.2 463.194 303.2ZM621.623 325H568.623V317.2C570.223 316.267 571.89 315.4 573.623 314.6C575.357 313.8 577.357 313.067 579.623 312.4V272C579.623 260.533 578.49 252.133 576.223 246.8C574.09 241.333 569.823 238.6 563.423 238.6C558.09 238.6 553.557 240.467 549.823 244.2C546.09 247.8 543.423 252 541.823 256.8V312.4C543.957 312.933 545.823 313.533 547.423 314.2C549.157 314.867 550.957 315.867 552.823 317.2V325H499.823V317.2C503.957 315.067 508.357 313.467 513.023 312.4V191.2L497.823 189.6V181.8C499.823 181 502.357 180.2 505.423 179.4C508.623 178.6 511.957 177.933 515.423 177.4C518.89 176.733 522.357 176.2 525.823 175.8C529.29 175.267 532.357 174.867 535.023 174.6H541.823V245.2H542.023C543.357 242.133 545.157 239.267 547.423 236.6C549.69 233.8 552.223 231.4 555.023 229.4C557.957 227.267 561.09 225.6 564.423 224.4C567.757 223.2 571.29 222.6 575.023 222.6C580.357 222.6 585.09 223.267 589.223 224.6C593.49 225.8 597.023 228 599.823 231.2C602.623 234.4 604.757 238.733 606.223 244.2C607.69 249.533 608.423 256.333 608.423 264.6V312.4C610.69 312.933 612.957 313.533 615.223 314.2C617.49 314.867 619.623 315.867 621.623 317.2V325ZM721.153 308.2C720.086 310.467 718.353 312.8 715.953 315.2C713.686 317.467 710.82 319.533 707.353 321.4C704.02 323.133 700.086 324.533 695.553 325.6C691.153 326.8 686.353 327.4 681.153 327.4C672.886 327.4 665.553 326.2 659.153 323.8C652.753 321.267 647.42 317.733 643.153 313.2C638.886 308.533 635.62 303 633.353 296.6C631.22 290.2 630.153 283 630.153 275C630.153 257.933 634.62 244.933 643.553 236C652.486 227.067 664.886 222.6 680.753 222.6C687.553 222.6 693.886 223.533 699.753 225.4C705.753 227.267 710.686 230.333 714.553 234.6C718.553 238.867 721.286 244.467 722.753 251.4C724.353 258.333 724.286 266.8 722.553 276.8H661.153C661.286 287.333 663.953 295.733 669.153 302C674.486 308.267 682.286 311.4 692.553 311.4C696.953 311.4 701.486 310.733 706.153 309.4C710.953 308.067 714.686 306.333 717.353 304.2L721.153 308.2ZM679.953 234C677.286 234 674.886 234.467 672.753 235.4C670.753 236.333 668.953 238.067 667.353 240.6C665.886 243 664.686 246.333 663.753 250.6C662.82 254.733 662.153 260 661.753 266.4H693.953C694.886 256 694.286 248 692.153 242.4C690.02 236.8 685.953 234 679.953 234ZM805.775 305.2C805.108 308.133 803.908 310.933 802.175 313.6C800.442 316.267 798.375 318.667 795.975 320.8C793.575 322.8 790.842 324.4 787.775 325.6C784.708 326.8 781.442 327.4 777.975 327.4C764.775 327.4 754.708 323.267 747.775 315C740.975 306.6 737.575 293.8 737.575 276.6C737.575 267.8 738.775 260.133 741.175 253.6C743.575 246.933 746.908 241.333 751.175 236.8C755.575 232.267 760.842 228.867 766.975 226.6C773.108 224.333 779.908 223.2 787.375 223.2C789.775 223.2 791.775 223.267 793.375 223.4C795.108 223.533 796.642 223.733 797.975 224C799.442 224.133 800.775 224.467 801.975 225C803.308 225.4 804.775 225.867 806.375 226.4V191.2L791.175 189.6V181.8C793.042 181 795.575 180.267 798.775 179.6C802.108 178.933 805.575 178.333 809.175 177.8C812.775 177.133 816.308 176.533 819.775 176C823.242 175.467 826.108 175 828.375 174.6H835.175V310.8L848.375 312.4V319.4C846.508 320.333 844.108 321.2 841.175 322C838.242 322.8 835.175 323.533 831.975 324.2C828.775 324.867 825.642 325.4 822.575 325.8C819.642 326.333 817.175 326.733 815.175 327H808.375L806.575 305.2H805.775ZM787.575 311.4C792.242 311.4 796.175 309.933 799.375 307C802.575 304.067 804.908 299.067 806.375 292V238.2C804.642 237.133 802.442 236.267 799.775 235.6C797.242 234.933 794.042 234.6 790.175 234.6C782.442 234.6 776.908 238.133 773.575 245.2C770.242 252.133 768.575 262.267 768.575 275.6C768.575 286.4 770.042 295.067 772.975 301.6C775.908 308.133 780.775 311.4 787.575 311.4Z" fill="#421F1C"/>
</svg>
